<svg xmlns="http://www.w3.org/2000/svg" width="275" height="160" viewBox="0 0 275 160"><path fill="#FFF" d="M0 0h275v160H0z"/><path fill="none" stroke="#000" stroke-width="2" stroke-miterlimit="10" d="M107.5 90V20h120v120h-180V90z"/><path d="M7.473 120.536c-.141-.457-.431-1.213-.87-2.268l.018-.114.308-.176.105.026c.486.885.79 1.388.91 1.507.12.121.394.262.822.422a3.79 3.79 0 0 0 1.354.242c.592 0 1.116-.129 1.573-.387s.797-.639 1.02-1.143.334-1.075.334-1.714c0-.627-.11-1.167-.33-1.622-.22-.453-.555-.798-1.006-1.032s-.938-.352-1.459-.352c-.328 0-.625.044-.892.132s-.489.201-.668.338a5.408 5.408 0 0 0-.637.611l-.36-.105.097-1.89c.023-.357.035-.718.035-1.081v-1.564c0-.469-.015-.917-.044-1.345a9.695 9.695 0 0 1-.026-.501l.114-.088c.896.07 1.919.105 3.067.105a55.9 55.9 0 0 0 3.138-.105l.035.088a5.689 5.689 0 0 0-.062.8c0 .123.009.328.026.615l-.088.053a40.315 40.315 0 0 0-2.689-.07c-1.529 0-2.417.006-2.663.018-.088.691-.149 1.91-.185 3.656.48-.352.914-.591 1.301-.716a4.01 4.01 0 0 1 1.257-.189c.639 0 1.251.146 1.837.439s1.024.718 1.314 1.274.435 1.157.435 1.802c0 1.189-.491 2.283-1.472 3.283-.981.998-2.237 1.498-3.766 1.498-.41 0-.749-.035-1.015-.105s-.558-.184-.868-.342zm19.977-.817l-.352.589c-.756.416-1.6.624-2.531.624-1.289 0-2.285-.384-2.988-1.151s-1.055-1.758-1.055-2.971c0-.551.06-1.042.18-1.472.12-.432.272-.787.457-1.068s.388-.504.611-.668.599-.393 1.129-.686.93-.484 1.2-.576c.27-.09.642-.136 1.116-.136.908 0 1.652.173 2.232.519-.111.662-.196 1.4-.255 2.215l-.079.07h-.36l-.079-.079c-.023-.492-.056-.823-.097-.993s-.274-.352-.699-.545-.877-.29-1.358-.29-.908.101-1.283.304c-.375.201-.658.533-.848.992-.19.461-.286 1.01-.286 1.648 0 .539.076 1.064.229 1.578.152.512.353.938.602 1.273.249.338.579.608.989.813s.867.308 1.371.308c.316 0 .625-.041.927-.123s.649-.217 1.042-.404l.185.229zm3.595-7.436l.167.114c-.035.387-.059.85-.07 1.389l.835-.765a13.3 13.3 0 0 1 .466-.418c.076-.061.255-.133.536-.215s.577-.123.888-.123c.586 0 1.099.145 1.538.436.439.289.765.689.976 1.199.791-.75 1.252-1.166 1.384-1.248s.341-.166.628-.25c.287-.086.574-.128.861-.128.463 0 .888.1 1.274.299s.694.46.923.782.362.671.4 1.046.057.891.057 1.547v.923c0 .1.018.829.053 2.188.012.557.073.888.185.993s.472.158 1.081.158l.07.07v.378l-.07.07a29.102 29.102 0 0 0-1.512-.07c-.146 0-.571.023-1.274.07l-.114-.097c.076-.762.114-1.755.114-2.979v-1.055c0-.932-.044-1.583-.132-1.956a1.557 1.557 0 0 0-.615-.914c-.322-.236-.706-.355-1.151-.355-.316 0-.612.063-.888.189a2.204 2.204 0 0 0-.743.563c-.22.248-.341.48-.365.693-.023.215-.035.608-.035 1.183v1.099c0 .258.012.741.035 1.45s.048 1.122.075 1.239.067.201.123.25c.056.051.12.082.193.098.073.014.388.039.945.074l.079.07v.369l-.07.079a33.073 33.073 0 0 0-2.118-.07 35.3 35.3 0 0 0-2.109.07l-.079-.079v-.369l.079-.07c.568-.035.889-.062.962-.079s.138-.054.193-.11a.463.463 0 0 0 .114-.254c.021-.115.044-.492.07-1.135.026-.641.04-1.126.04-1.454v-1.002c0-.662-.045-1.172-.136-1.529s-.286-.659-.584-.905-.674-.369-1.125-.369c-.352 0-.672.068-.962.207-.29.137-.527.307-.712.51-.185.201-.299.391-.343.566s-.066.557-.066 1.143v1.301c0 .258.012.741.035 1.45s.048 1.122.075 1.239.067.201.123.25c.056.051.12.082.193.098.073.014.388.039.945.074l.079.07v.369l-.07.079a33.073 33.073 0 0 0-2.118-.07c-.674 0-1.377.023-2.109.07l-.079-.079v-.369l.079-.07c.568-.035.889-.062.962-.079s.138-.054.193-.11a.463.463 0 0 0 .114-.254c.021-.115.044-.492.07-1.135.026-.641.04-1.126.04-1.454v-1.731c0-.234-.012-.554-.035-.958s-.042-.653-.057-.747-.06-.162-.136-.207c-.076-.043-.229-.065-.457-.065l-.738-.009-.079-.07v-.378l.07-.07c1.118-.136 2.061-.356 2.829-.661zM66.44 56.869l-.185-.185c.211-.316.647-.996 1.31-2.039l1.608-2.566 1.512-2.47 1.318-2.268c.281-.492.504-.891.668-1.195l-.088-.088h-2.725c-.686 0-1.295.012-1.828.035s-.847.057-.94.101-.16.098-.198.163-.081.287-.127.668l-.158 1.239-.079.07h-.369l-.079-.07.044-2.408c0-.275-.015-.7-.044-1.274l.176-.088c.322.035.977.073 1.964.114s1.648.062 1.982.062c1.189 0 2.487-.041 3.894-.123l.07.07v.457L72.9 47.315c-.768 1.371-1.644 2.996-2.628 4.874s-1.702 3.415-2.153 4.61l-.088.07a9.582 9.582 0 0 0-.756-.044 8.05 8.05 0 0 0-.835.044zm19.943-1.011l-.352.589c-.756.416-1.6.624-2.531.624-1.289 0-2.285-.384-2.988-1.151s-1.055-1.758-1.055-2.971c0-.551.06-1.042.18-1.472s.272-.787.457-1.068.388-.504.611-.668.599-.393 1.129-.686.93-.485 1.2-.576.642-.136 1.116-.136c.908 0 1.652.173 2.232.519-.111.662-.196 1.4-.255 2.215l-.079.07h-.36l-.079-.079c-.023-.492-.056-.823-.097-.993s-.274-.352-.699-.545-.877-.29-1.358-.29-.908.101-1.283.303-.658.533-.848.993-.286 1.009-.286 1.648c0 .539.076 1.065.229 1.578s.353.938.602 1.274.579.608.989.813.867.308 1.371.308c.316 0 .625-.041.927-.123s.649-.217 1.042-.404l.185.228zm3.595-7.436l.167.114c-.035.387-.059.85-.07 1.389l.835-.765c.234-.217.39-.356.466-.417s.255-.133.536-.215.577-.123.888-.123c.586 0 1.099.145 1.538.435s.765.69.976 1.2c.791-.75 1.252-1.166 1.384-1.248s.341-.166.628-.25.574-.127.861-.127c.463 0 .888.1 1.274.299s.694.46.923.782.362.671.4 1.046.057.891.057 1.547v.923c0 .1.018.829.053 2.188.012.557.073.888.185.993s.472.158 1.081.158l.07.07v.378l-.07.07a29.102 29.102 0 0 0-1.512-.07c-.146 0-.571.023-1.274.07l-.114-.097c.076-.762.114-1.755.114-2.979v-1.055c0-.932-.044-1.583-.132-1.956s-.293-.677-.615-.914-.706-.356-1.151-.356c-.316 0-.612.063-.888.189s-.523.313-.743.563-.341.48-.365.694-.035.608-.035 1.182v1.099c0 .258.012.741.035 1.45s.048 1.122.075 1.239.067.201.123.25.12.082.193.097.388.04.945.075l.079.07v.369l-.07.079a33.073 33.073 0 0 0-2.118-.07 35.3 35.3 0 0 0-2.109.07l-.079-.079v-.369l.079-.07c.568-.035.889-.062.962-.079s.138-.054.193-.11.094-.141.114-.255.044-.492.07-1.134.04-1.126.04-1.455v-1.002c0-.662-.045-1.172-.136-1.529s-.286-.659-.584-.905-.674-.369-1.125-.369c-.352 0-.672.069-.962.207s-.527.308-.712.51-.299.391-.343.567-.066.557-.066 1.143v1.301c0 .258.012.741.035 1.45s.048 1.122.075 1.239.067.201.123.25.12.082.193.097.388.04.945.075l.079.07v.369l-.07.079a33.073 33.073 0 0 0-2.118-.07c-.674 0-1.377.023-2.109.07l-.079-.079v-.37l.079-.07c.568-.035.889-.062.962-.079s.138-.054.193-.11.094-.141.114-.255.044-.492.07-1.134.04-1.126.04-1.455v-1.731c0-.234-.012-.554-.035-.958s-.042-.653-.057-.747-.06-.163-.136-.207-.229-.066-.457-.066l-.74-.008-.079-.07v-.378l.07-.07c1.12-.135 2.063-.355 2.831-.66zm29.187 99.06l-.158-.053-.088-.721.088-.088c.586-.17 1.327-.442 2.224-.817s1.538-.662 1.925-.861l.229.088c-.094 2.566-.141 4.107-.141 4.623v3.261c0 .803.009 1.557.026 2.264.018.705.044 1.121.079 1.248.035.125.095.224.18.294s.204.116.356.136c.152.021.606.052 1.362.093l.062.07v.396l-.062.07a85.483 85.483 0 0 0-2.716-.07c-.398 0-1.374.023-2.927.07l-.062-.07v-.396l.07-.07c.879-.064 1.381-.111 1.507-.141s.223-.081.29-.153c.067-.074.122-.213.163-.418s.075-.812.101-1.819l.04-1.547v-3.463c0-1.699-.004-2.622-.013-2.769s-.06-.22-.154-.22c-.023 0-.056.006-.097.018s-.17.064-.387.158l-.87.387c-.362.158-.705.325-1.027.5zm10.608 3.701c-.65-.346-1.144-.743-1.481-1.19-.337-.449-.505-.992-.505-1.631 0-.896.331-1.666.993-2.307.662-.643 1.564-.963 2.707-.963.58 0 1.118.102 1.613.303.495.203.877.504 1.147.906.27.4.404.848.404 1.34 0 .516-.158 1.01-.475 1.48-.316.473-.876.951-1.679 1.438v.079c.686.328 1.194.606 1.525.835s.602.537.813.928c.211.389.316.839.316 1.349 0 .697-.201 1.366-.602 2.009-.401.641-.93 1.129-1.586 1.463s-1.336.501-2.039.501c-1.025 0-1.872-.287-2.54-.861s-1.002-1.339-1.002-2.294c0-.773.23-1.439.69-2a4.746 4.746 0 0 1 1.701-1.305v-.08zm.712.316c-.691.41-1.172.851-1.441 1.323-.27.471-.404 1.006-.404 1.604 0 .838.234 1.496.703 1.973.469.479 1.072.717 1.811.717.504 0 .961-.117 1.371-.352s.716-.555.918-.963a2.95 2.95 0 0 0 .303-1.331c0-.691-.242-1.23-.725-1.617s-1.329-.838-2.536-1.354zm1.336-1.16c.627-.393 1.052-.786 1.274-1.183.223-.395.334-.821.334-1.278 0-.674-.193-1.207-.58-1.6s-.905-.589-1.556-.589c-.621 0-1.137.174-1.547.523-.41.348-.615.836-.615 1.463 0 .475.133.887.4 1.234.267.351 1.031.826 2.29 1.43zm16.128 6.135l-.352.589c-.756.416-1.6.624-2.531.624-1.289 0-2.285-.384-2.988-1.151s-1.055-1.758-1.055-2.971c0-.551.061-1.041.18-1.473.121-.43.273-.786.457-1.067.186-.281.389-.504.611-.668s.6-.393 1.129-.686c.531-.293.931-.485 1.2-.575.27-.092.642-.137 1.116-.137.908 0 1.652.173 2.232.519-.111.662-.196 1.4-.255 2.215l-.079.07h-.36l-.079-.079c-.023-.492-.056-.823-.097-.993s-.274-.352-.698-.545c-.426-.193-.878-.29-1.358-.29s-.908.102-1.283.303c-.375.203-.657.533-.849.994-.189.459-.285 1.009-.285 1.647 0 .539.076 1.065.229 1.577.152.514.354.938.602 1.275.25.336.579.607.989.813s.867.308 1.371.308c.316 0 .626-.041.927-.123a6.34 6.34 0 0 0 1.042-.404l.184.228zm3.595-7.436l.167.114c-.035.387-.059.85-.07 1.389l.835-.765c.234-.217.39-.356.466-.417.076-.063.255-.134.536-.216s.577-.123.888-.123c.586 0 1.099.146 1.538.435.439.291.765.69.976 1.2.791-.75 1.252-1.166 1.385-1.248.131-.082.341-.165.628-.251.287-.084.574-.127.861-.127.463 0 .888.1 1.274.299s.694.46.923.782.362.671.399 1.046c.039.375.058.891.058 1.547v.923c0 .1.018.829.053 2.188.012.557.073.888.185.993s.472.158 1.081.158l.07.07v.378l-.07.07a29.102 29.102 0 0 0-1.512-.07c-.146 0-.571.023-1.274.07l-.114-.097c.076-.762.114-1.755.114-2.979v-1.055c0-.932-.044-1.584-.132-1.955a1.545 1.545 0 0 0-.615-.914c-.322-.238-.706-.356-1.151-.356-.316 0-.612.063-.888.188a2.254 2.254 0 0 0-.743.563c-.219.25-.341.48-.364.695a13.11 13.11 0 0 0-.035 1.182v1.099c0 .258.012.741.035 1.45s.048 1.122.075 1.239c.025.117.066.2.123.251a.397.397 0 0 0 .193.096c.072.016.388.04.944.075l.079.07v.369l-.07.079a33.073 33.073 0 0 0-2.118-.07 35.3 35.3 0 0 0-2.109.07l-.079-.079v-.369l.079-.07c.568-.035.89-.062.962-.079a.405.405 0 0 0 .193-.109.47.47 0 0 0 .115-.256c.02-.113.043-.492.07-1.133.025-.643.039-1.127.039-1.455v-1.002c0-.662-.045-1.172-.137-1.529-.09-.357-.285-.659-.584-.905s-.674-.369-1.125-.369a2.23 2.23 0 0 0-.963.206 2.304 2.304 0 0 0-.711.51c-.186.203-.299.392-.344.567-.043.176-.065.557-.065 1.143v1.301c0 .258.012.741.035 1.45s.048 1.122.075 1.239c.025.117.066.2.123.251a.397.397 0 0 0 .193.096c.072.016.388.04.944.075l.079.07v.369l-.07.079a33.073 33.073 0 0 0-2.118-.07c-.674 0-1.377.023-2.109.07l-.079-.079v-.369l.079-.07c.568-.035.89-.062.962-.079a.405.405 0 0 0 .193-.109.47.47 0 0 0 .115-.256c.02-.113.043-.492.07-1.133.025-.643.039-1.127.039-1.455v-1.731c0-.234-.012-.554-.035-.958s-.043-.653-.057-.747a.275.275 0 0 0-.137-.206c-.076-.045-.229-.066-.457-.066l-.738-.009-.079-.07v-.378l.07-.07c1.12-.136 2.063-.356 2.831-.661zM148.117 5.593l-.158-.053-.088-.721.088-.088c.586-.17 1.327-.442 2.224-.817s1.538-.662 1.925-.861l.229.088c-.094 2.566-.141 4.107-.141 4.623v3.261c0 .803.009 1.557.026 2.263s.044 1.122.079 1.248.096.224.18.294c.086.07.204.116.356.136s.606.051 1.362.092l.062.07v.396l-.062.07a85.483 85.483 0 0 0-2.716-.07c-.398 0-1.374.023-2.927.07l-.062-.07v-.396l.07-.07c.879-.064 1.382-.111 1.507-.141a.553.553 0 0 0 .291-.154c.066-.073.121-.212.162-.417s.074-.812.102-1.819l.039-1.547V7.518c0-1.699-.004-2.622-.014-2.769-.008-.146-.06-.22-.153-.22-.023 0-.056.006-.097.018s-.17.064-.387.158l-.87.387c-.362.158-.705.325-1.027.501zm8.06 10.019l-.105-.088v-.404l2.944-3.12c1.213-1.283 1.998-2.276 2.355-2.979s.536-1.359.536-1.969c0-.715-.217-1.31-.65-1.784s-1.02-.712-1.758-.712c-.475 0-.888.073-1.239.22s-.588.311-.707.492c-.121.182-.295.691-.523 1.529l-.079.07h-.36l-.088-.079c.135-.791.229-1.573.281-2.347.551-.539 1.064-.883 1.543-1.033a4.998 4.998 0 0 1 1.498-.224c.621 0 1.216.117 1.784.352s1.025.614 1.371 1.138.519 1.132.519 1.824c0 .516-.102 1.033-.303 1.551a5.672 5.672 0 0 1-.889 1.503c-.389.483-.921 1.062-1.595 1.736l-2.742 2.795h3.472c1.066 0 1.954-.038 2.663-.114l.062.07c-.035.199-.053.46-.053.782 0 .293.018.524.053.694l-.062.097c-.422-.023-1.069-.044-1.942-.062s-1.45-.026-1.731-.026c-.568 0-1.333.007-2.294.022s-1.616.037-1.961.066zm20.724-1.028l-.352.589c-.756.416-1.6.624-2.531.624-1.289 0-2.285-.384-2.988-1.151s-1.055-1.758-1.055-2.971c0-.551.06-1.042.181-1.472.119-.431.271-.787.457-1.068.184-.281.388-.504.61-.668s.599-.393 1.13-.686c.529-.293.93-.485 1.199-.576s.642-.136 1.116-.136c.908 0 1.652.173 2.232.519-.111.662-.196 1.4-.255 2.215l-.079.07h-.36l-.079-.079c-.023-.492-.056-.823-.097-.993s-.273-.352-.699-.545c-.424-.193-.877-.29-1.357-.29s-.908.101-1.283.303-.658.533-.848.993c-.191.46-.286 1.009-.286 1.648 0 .539.076 1.065.229 1.578s.353.938.603 1.274c.248.337.578.608.988.813s.867.308 1.371.308c.316 0 .625-.041.928-.123a6.402 6.402 0 0 0 1.041-.404l.184.228zm3.595-7.436l.167.114c-.035.387-.059.85-.07 1.389l.835-.765c.234-.217.39-.356.466-.417s.255-.133.536-.215.577-.123.888-.123c.586 0 1.099.145 1.538.435s.765.69.976 1.2c.791-.75 1.253-1.166 1.384-1.248.133-.082.342-.166.629-.25s.574-.127.861-.127c.463 0 .888.1 1.274.299s.694.46.923.782.361.671.4 1.046c.037.375.057.891.057 1.547v.923c0 .1.018.829.053 2.188.012.557.073.888.185.993s.472.158 1.081.158l.07.07v.378l-.07.07a29.102 29.102 0 0 0-1.512-.07c-.146 0-.571.023-1.274.07l-.114-.097c.076-.762.114-1.755.114-2.979v-1.055c0-.932-.044-1.583-.132-1.956s-.293-.677-.615-.914-.706-.356-1.151-.356c-.316 0-.612.063-.888.189s-.523.313-.742.563c-.221.249-.342.48-.365.694s-.035.608-.035 1.182v1.099c0 .258.012.741.035 1.45s.049 1.122.074 1.239a.472.472 0 0 0 .123.25c.057.05.121.082.193.097.074.015.389.04.945.075l.079.07v.369l-.07.079a33.073 33.073 0 0 0-2.118-.07 35.3 35.3 0 0 0-2.109.07l-.079-.079v-.369l.079-.07c.568-.035.889-.062.963-.079a.41.41 0 0 0 .193-.11.466.466 0 0 0 .113-.255c.021-.114.045-.492.07-1.134.027-.642.04-1.126.04-1.455v-1.002c0-.662-.046-1.172-.136-1.529-.092-.357-.286-.659-.585-.905s-.674-.369-1.125-.369c-.352 0-.673.069-.962.207a2.281 2.281 0 0 0-.713.51c-.184.202-.299.391-.342.567-.045.176-.066.557-.066 1.143v1.301c0 .258.012.741.035 1.45s.049 1.122.074 1.239a.472.472 0 0 0 .123.25c.057.05.121.082.193.097.074.015.389.04.945.075l.079.07v.369l-.07.079a33.073 33.073 0 0 0-2.118-.07c-.674 0-1.377.023-2.109.07l-.079-.079v-.369l.079-.07c.568-.035.889-.062.963-.079a.41.41 0 0 0 .193-.11.466.466 0 0 0 .113-.255c.021-.114.045-.492.07-1.134.027-.642.04-1.126.04-1.455v-1.731c0-.234-.012-.554-.035-.958s-.042-.653-.058-.747c-.014-.094-.06-.163-.136-.207s-.229-.066-.457-.066l-.738-.009-.079-.07v-.378l.07-.07c1.12-.135 2.064-.355 2.831-.66z"/><path fill="none" stroke="#000" stroke-miterlimit="10" d="M47.5 125h15v15h-15zm0-35.112h15v15h-15zM107.954 20h15v15h-15zM212.5 20h15v15h-15zm0 105h15v15h-15z"/></svg>