<svg xmlns="http://www.w3.org/2000/svg" width="650" height="300" viewBox="0 0 650 300"><path fill="#FFF" d="M0 0h650v300H0z"/><g stroke="#A5A5A5" stroke-width=".5" stroke-miterlimit="10" stroke-dasharray="2"><path d="M25 0v300M50 0v300M75 0v300M100 0v300M125 0v300M150 0v300M175 0v300M200 0v300M225 0v300M250 0v300M275 0v300M300 0v300M325 0v300M350 0v300M375 0v300M400 0v300M425 0v300M450 0v300M475 0v300M500 0v300M525 0v300M550 0v300M575 0v300M600 0v300M625 0v300M0 270h650M0 240h650M0 210h650M0 180h650M0 150h650M0 120h650M0 90h650M0 60h650M0 30h650" fill="#FFF"/><path fill="none" d="M1 0h649v299H1z"/></g><path fill="none" stroke="#000" stroke-width="2" stroke-miterlimit="10" d="M1.084 150h647.832"/><path d="M4.398 154.09l.682-.733-3.612-3.356 3.612-3.357-.682-.733L0 150.001zm641.204 0l-.682-.733 3.611-3.356-3.611-3.357.682-.733 4.398 4.09z"/><path fill="none" stroke="#000" stroke-width="2" stroke-miterlimit="10" d="M325 1.084v297.832"/><path d="M320.91 4.398l.733.682 3.356-3.612 3.357 3.612.733-.682L324.999 0zm0 291.204l.733-.682 3.356 3.611 3.357-3.611.733.682-4.09 4.398z"/><path d="M25 155v-10m25 10v-10m25 10v-10m25 10v-10m25 10v-10m25 10v-10m25 10v-10m25 10v-10m25 10v-10m25 10v-10m25 10v-10m25 10v-10m25 10v-10m25 10v-10m25 10v-10m25 10v-10m25 10v-10m25 10v-10m25 10v-10m25 10v-10m25 10v-10m25 10v-10m25 10v-10m25 10v-10m25 10v-10M320 270h10m-10-30h10m-10-30h10m-10-30h10m-10-30h10m-10-30h10m-10-30h10m-10-30h10m-10-30h10" fill="#FFF" stroke="#000" stroke-width="2" stroke-miterlimit="10"/><path d="M631.07 140.348c.141-.75.214-1.248.22-1.494l.053-.07.229-.035.088.053.176.448a.75.75 0 0 0 .422.149c.369 0 .744-.215 1.125-.646s.891-1.173 1.529-2.228c-.029-.193-.1-.62-.211-1.279s-.234-1.159-.369-1.499-.263-.557-.382-.65a.662.662 0 0 0-.418-.141.987.987 0 0 0-.523.136c-.148.091-.335.25-.558.479l-.185.185-.088.018-.211-.123-.018-.097 1.011-1.433a1.753 1.753 0 0 1 1.037-.316c.486 0 .879.193 1.178.58s.516 1.274.65 2.663l.94-1.424c.094-.158.302-.428.624-.809s.609-.647.861-.8.501-.229.747-.229c.188 0 .369.05.545.149-.135.691-.22 1.181-.255 1.468l-.062.07-.141.035-.088-.044a.812.812 0 0 0-.225-.268.528.528 0 0 0-.303-.075c-.305 0-.611.133-.918.4-.309.267-.843.951-1.604 2.052.27 1.705.503 2.773.698 3.204.197.431.441.646.734.646.17 0 .344-.051.523-.154.178-.103.44-.306.786-.611l.105.009.123.185-.009.105c-.375.369-.729.683-1.059.94-.332.258-.58.434-.748.527a1.13 1.13 0 0 1-.566.141c-.287 0-.519-.114-.694-.343s-.325-.577-.448-1.046-.243-1.151-.36-2.048c-.498.838-.958 1.538-1.38 2.101s-.766.929-1.033 1.099a1.52 1.52 0 0 1-.83.255c-.29.002-.53-.077-.718-.235zM334.895 23.617l.87-.589.185.062a1.976 1.976 0 0 0-.018.246c0 .422.123.74.369.954s.51.321.791.321c.223 0 .449-.057.682-.171.23-.114.457-.303.676-.567.221-.264.468-.706.743-1.327s.526-1.291.751-2.008c.227-.718.444-1.466.655-2.246l.299-1.099c-.398.609-.765 1.099-1.099 1.468s-.662.721-.984 1.055-.589.565-.8.694-.398.193-.563.193c-.246 0-.439-.151-.58-.453s-.211-.675-.211-1.121c0-.229.041-.697.123-1.406.141-1.283.211-2.396.211-3.34 0-.486-.024-.804-.075-.954-.049-.149-.136-.224-.259-.224-.135 0-.305.067-.51.202s-.463.322-.773.563l-.114-.035-.097-.211.026-.132c1.307-1.102 2.168-1.652 2.584-1.652a.48.48 0 0 1 .418.229c.102.152.153.439.153.861 0 .398-.029.92-.088 1.564-.182 1.992-.272 3.322-.272 3.99 0 .234.025.413.074.536.051.123.14.185.269.185a.848.848 0 0 0 .347-.105c.145-.07.374-.261.69-.571s.633-.702.949-1.173.599-.992.849-1.56c.248-.568.443-1.11.584-1.626s.311-1.187.51-2.013c.398-.059.841-.17 1.327-.334l.193.176c-.293.586-.832 2.218-1.617 4.896a85.41 85.41 0 0 1-.997 3.256c-.268.794-.582 1.518-.945 2.171s-.785 1.22-1.266 1.701-.934.819-1.357 1.015c-.426.196-.831.294-1.218.294-.416 0-.774-.13-1.077-.391-.301-.261-.452-.602-.452-1.024 0-.089.014-.188.044-.3zM11 167.308v-.813h7v.813h-7zm7.711 2.83a15.097 15.097 0 0 0-.458-1.941l.034-.103.253-.096.096.048c.16.419.331.766.513 1.039s.444.483.786.629.711.219 1.107.219c.501 0 .899-.104 1.193-.314s.521-.495.68-.854.239-.766.239-1.217c0-.605-.158-1.082-.475-1.429s-.755-.52-1.316-.52c-.191 0-.362.019-.513.055s-.383.118-.697.246l-.075-.068.15-.745c.369.023.615.034.738.034.533 0 .956-.188 1.268-.567s.468-.824.468-1.34c0-.451-.163-.83-.489-1.135s-.728-.458-1.207-.458c-.314 0-.612.063-.892.191s-.512.282-.694.465c-.078.155-.201.46-.369.916l-.068.062h-.308l-.055-.062.41-1.586c.57-.643 1.342-.964 2.317-.964.743 0 1.343.197 1.801.592.458.394.687.889.687 1.486 0 .455-.134.874-.403 1.254-.269.381-.643.74-1.121 1.077.789.096 1.343.331 1.665.708.321.375.482.83.482 1.363 0 .875-.396 1.662-1.189 2.361-.793.7-1.709 1.05-2.748 1.05-.31 0-.599-.026-.868-.079a4.544 4.544 0 0 1-.942-.317zm12.195-9.297v.082c-.497.104-1.063.353-1.699.745s-1.17.918-1.603 1.579-.684 1.458-.752 2.393c.155-.109.333-.241.533-.396.26-.196.45-.331.571-.403s.283-.137.485-.191.437-.082.701-.082c.469 0 .891.104 1.265.311.374.208.654.514.841.916.187.404.28.875.28 1.412 0 .762-.185 1.398-.554 1.91-.369.514-.761.88-1.176 1.102-.415.221-.891.331-1.429.331-.916 0-1.627-.343-2.133-1.028-.506-.687-.759-1.578-.759-2.677 0-.729.106-1.43.318-2.103.212-.672.534-1.28.967-1.824.433-.545.985-1.029 1.658-1.453s1.334-.711 1.986-.861l.5.237zm-4.183 6.521c0 .451.065.897.195 1.34s.338.784.625 1.025.625.362 1.012.362c.333 0 .64-.094.923-.28s.498-.479.646-.878c.148-.399.222-.82.222-1.262s-.073-.838-.219-1.186a1.814 1.814 0 0 0-.636-.814 1.661 1.661 0 0 0-.971-.29c-.273 0-.547.065-.82.198s-.484.283-.632.451-.243.348-.284.537c-.041.19-.061.456-.061.797zm5.701-1.244c0-.812.041-1.542.123-2.19a4.8 4.8 0 0 1 .543-1.736c.28-.509.631-.889 1.053-1.143a2.749 2.749 0 0 1 1.439-.379c.611 0 1.147.157 1.61.472s.795.798.998 1.449.304 1.538.304 2.659c0 1.822-.279 3.165-.837 4.026s-1.332 1.292-2.321 1.292c-.497 0-.936-.107-1.316-.321s-.693-.524-.937-.93-.415-.884-.513-1.436-.146-1.139-.146-1.763zm1.176-.396c0 .866.065 1.654.195 2.365s.346 1.223.649 1.534c.303.313.664.469 1.083.469.406 0 .744-.139 1.015-.417s.469-.755.595-1.429.188-1.508.188-2.502c0-1.559-.148-2.711-.444-3.459s-.786-1.121-1.47-1.121c-.597 0-1.048.289-1.354.868s-.457 1.81-.457 3.692zm52.4 1.586v-.813h7v.813h-7zm7.314 3.055l-.082-.068v-.314l2.29-2.427c.943-.998 1.554-1.771 1.832-2.317s.417-1.057.417-1.531c0-.557-.168-1.019-.506-1.388s-.793-.554-1.367-.554c-.369 0-.69.057-.964.171s-.457.241-.55.383-.229.538-.407 1.189l-.062.055h-.28l-.068-.062c.105-.615.178-1.224.219-1.825.428-.419.828-.687 1.2-.804.372-.115.76-.174 1.166-.174.483 0 .946.092 1.388.273s.797.478 1.066.885c.269.408.403.881.403 1.419 0 .401-.079.804-.236 1.206a4.432 4.432 0 0 1-.69 1.17c-.303.375-.717.826-1.241 1.35l-2.133 2.174h2.7c.83 0 1.52-.029 2.071-.089l.048.055a3.672 3.672 0 0 0-.041.608c0 .229.014.408.041.54l-.048.075c-.328-.018-.832-.034-1.511-.048s-1.128-.021-1.347-.021c-.442 0-1.037.006-1.784.018a26.18 26.18 0 0 0-1.524.051zm7.609-.013l-.144-.144c.164-.246.503-.774 1.019-1.586l1.251-1.996 1.176-1.921 1.025-1.764c.219-.383.392-.693.52-.93l-.068-.068h-2.119c-.533 0-1.007.01-1.422.027s-.659.045-.731.078c-.073.035-.124.076-.154.127s-.063.223-.099.52l-.123.964-.062.055h-.287l-.062-.055.034-1.873c0-.214-.011-.544-.034-.991l.137-.068c.25.027.76.057 1.528.089s1.282.048 1.542.048c.925 0 1.935-.031 3.028-.096l.055.055v.355l-.984 1.743a160.583 160.583 0 0 0-2.044 3.79c-.766 1.461-1.324 2.656-1.675 3.586l-.068.055a7.228 7.228 0 0 0-.588-.034 5.823 5.823 0 0 0-.651.034zm6.501-4.232c0-.812.041-1.542.123-2.19a4.8 4.8 0 0 1 .543-1.736c.28-.509.631-.889 1.053-1.143a2.749 2.749 0 0 1 1.439-.379c.611 0 1.147.157 1.61.472s.795.798.998 1.449.304 1.538.304 2.659c0 1.822-.279 3.165-.837 4.026s-1.332 1.292-2.321 1.292c-.497 0-.936-.107-1.316-.321s-.693-.524-.937-.93-.415-.884-.513-1.436-.146-1.139-.146-1.763zm1.176-.396c0 .866.065 1.654.195 2.365s.346 1.223.649 1.534c.303.313.664.469 1.083.469.406 0 .744-.139 1.015-.417s.469-.755.595-1.429.188-1.508.188-2.502c0-1.559-.148-2.711-.444-3.459s-.786-1.121-1.47-1.121c-.597 0-1.048.289-1.354.868s-.457 1.81-.457 3.692zm52.4 1.586v-.813h7v.813h-7zm8.046-4.738l-.123-.041-.068-.561.068-.068c.456-.133 1.032-.344 1.729-.636s1.196-.515 1.497-.67l.178.068c-.073 1.996-.109 3.194-.109 3.596v2.536c0 .625.007 1.211.021 1.76.014.55.034.873.062.971.027.099.074.175.14.229s.158.09.277.106c.119.016.472.039 1.06.071l.048.055v.308l-.048.055a65.634 65.634 0 0 0-2.112-.055c-.31 0-1.069.018-2.276.055l-.048-.055v-.308l.055-.055c.684-.05 1.074-.087 1.172-.109s.173-.063.226-.12c.052-.057.095-.164.126-.324s.058-.631.079-1.415l.031-1.203v-2.693c0-1.321-.003-2.04-.01-2.153s-.047-.171-.12-.171c-.018 0-.043.005-.075.014s-.132.05-.301.123l-.677.301a9.82 9.82 0 0 0-.802.389zm8.251 2.878c-.506-.269-.89-.577-1.152-.927-.262-.348-.393-.771-.393-1.268 0-.697.257-1.295.772-1.795.515-.498 1.217-.748 2.105-.748.451 0 .869.078 1.254.236.385.156.683.392.892.703.209.313.314.66.314 1.043 0 .4-.123.785-.369 1.152-.246.366-.681.738-1.306 1.117v.062c.533.255.929.472 1.186.649s.468.418.632.721c.164.304.246.653.246 1.05 0 .542-.156 1.063-.468 1.562-.312.5-.724.879-1.234 1.139s-1.039.39-1.586.39c-.797 0-1.456-.224-1.976-.67s-.779-1.042-.779-1.784c0-.602.179-1.12.537-1.555a3.697 3.697 0 0 1 1.323-1.016v-.061zm.554.246c-.538.319-.912.662-1.121 1.028a2.477 2.477 0 0 0-.314 1.248c0 .652.182 1.163.547 1.535.365.371.834.557 1.408.557.392 0 .748-.092 1.066-.273s.557-.432.714-.748c.157-.317.236-.662.236-1.036 0-.538-.188-.957-.564-1.258s-1.033-.651-1.972-1.053zm1.039-.902c.488-.306.818-.612.991-.919.173-.309.26-.64.26-.995 0-.524-.15-.938-.451-1.244s-.704-.458-1.21-.458c-.483 0-.884.136-1.203.406-.319.271-.479.65-.479 1.139 0 .369.104.689.311.961.207.27.801.64 1.781 1.11zm3.534 1.326c0-.812.041-1.542.123-2.19a4.8 4.8 0 0 1 .543-1.736c.28-.509.631-.889 1.053-1.143a2.749 2.749 0 0 1 1.439-.379c.611 0 1.147.157 1.61.472s.795.798.998 1.449.304 1.538.304 2.659c0 1.822-.279 3.165-.837 4.026s-1.332 1.292-2.321 1.292c-.497 0-.936-.107-1.316-.321s-.693-.524-.937-.93-.415-.884-.513-1.436-.146-1.139-.146-1.763zm1.176-.396c0 .866.065 1.654.195 2.365s.346 1.223.649 1.534c.303.313.664.469 1.083.469.406 0 .744-.139 1.015-.417s.469-.755.595-1.429.188-1.508.188-2.502c0-1.559-.148-2.711-.444-3.459s-.786-1.121-1.47-1.121c-.597 0-1.048.289-1.354.868s-.457 1.81-.457 3.692zm55.9 1.586v-.813h7v.813h-7zm7.909 3.042v-.13c1.267-.292 2.263-.849 2.987-1.671.725-.823 1.132-1.829 1.224-3.019-.67.798-1.419 1.196-2.249 1.196-.524 0-.981-.125-1.371-.376s-.678-.577-.865-.978-.28-.871-.28-1.408c0-.988.297-1.781.892-2.379s1.332-.896 2.211-.896c.889 0 1.607.321 2.157.964s.824 1.568.824 2.775c0 .533-.05 1.045-.15 1.535-.1.489-.29.992-.567 1.507s-.646.993-1.104 1.436-.975.81-1.552 1.104a5.415 5.415 0 0 1-1.706.557l-.451-.217zm.629-6.829c0 .396.069.785.208 1.165.139.381.352.675.639.883.287.207.625.311 1.012.311.538 0 .971-.182 1.299-.543.328-.363.492-.904.492-1.624 0-.747-.162-1.359-.485-1.835-.324-.477-.768-.715-1.333-.715-.542 0-.983.201-1.323.602s-.509.985-.509 1.756zm5.886 2.597c0-.812.041-1.542.123-2.19a4.8 4.8 0 0 1 .543-1.736c.28-.509.631-.889 1.053-1.143a2.749 2.749 0 0 1 1.439-.379c.611 0 1.147.157 1.61.472s.795.798.998 1.449.304 1.538.304 2.659c0 1.822-.279 3.165-.837 4.026s-1.332 1.292-2.321 1.292c-.497 0-.936-.107-1.316-.321s-.693-.524-.937-.93-.415-.884-.513-1.436-.146-1.139-.146-1.763zm1.176-.396c0 .866.065 1.654.195 2.365s.346 1.223.649 1.534c.303.313.664.469 1.083.469.406 0 .744-.139 1.015-.417s.469-.755.595-1.429.188-1.508.188-2.502c0-1.559-.148-2.711-.444-3.459s-.786-1.121-1.47-1.121c-.597 0-1.048.289-1.354.868s-.457 1.81-.457 3.692zm138.809 4.628v-.13c1.267-.292 2.263-.849 2.987-1.671.725-.823 1.133-1.829 1.224-3.019-.67.798-1.419 1.196-2.249 1.196-.523 0-.98-.125-1.371-.376-.389-.251-.678-.577-.864-.978s-.28-.871-.28-1.408c0-.988.297-1.781.893-2.379.594-.598 1.332-.896 2.211-.896.889 0 1.607.321 2.156.964.55.643.824 1.568.824 2.775 0 .533-.051 1.045-.15 1.535-.1.489-.289.992-.567 1.507s-.646.993-1.104 1.436c-.457.442-.975.81-1.551 1.104a5.423 5.423 0 0 1-1.706.557l-.453-.217zm.629-6.829c0 .396.069.785.208 1.165.14.381.353.675.64.883.287.207.624.311 1.012.311.538 0 .971-.182 1.299-.543.328-.363.492-.904.492-1.624 0-.747-.161-1.359-.485-1.835-.324-.477-.768-.715-1.333-.715-.542 0-.983.201-1.323.602-.34.399-.51.985-.51 1.756zm5.886 2.597c0-.812.041-1.542.123-2.19.082-.65.264-1.229.543-1.736.281-.509.632-.889 1.053-1.143a2.754 2.754 0 0 1 1.439-.379c.611 0 1.147.157 1.609.472.463.314.796.798.998 1.449.203.651.305 1.538.305 2.659 0 1.822-.279 3.165-.838 4.026-.558.861-1.332 1.292-2.32 1.292-.496 0-.936-.107-1.316-.321a2.543 2.543 0 0 1-.936-.93 4.195 4.195 0 0 1-.514-1.436 10.17 10.17 0 0 1-.146-1.763zm1.176-.396c0 .866.064 1.654.195 2.365.129.711.346 1.223.648 1.534.304.313.664.469 1.084.469.406 0 .744-.139 1.016-.417.271-.278.469-.755.594-1.429.126-.674.188-1.508.188-2.502 0-1.559-.147-2.711-.444-3.459s-.786-1.121-1.47-1.121c-.597 0-1.048.289-1.354.868s-.457 1.81-.457 3.692zm63.946-3.152l-.123-.041-.068-.561.068-.068c.456-.133 1.032-.344 1.729-.636s1.196-.515 1.497-.67l.178.068c-.073 1.996-.109 3.194-.109 3.596v2.536c0 .625.007 1.211.021 1.76.014.55.034.873.062.971a.433.433 0 0 0 .14.229c.066.055.158.09.277.106.119.016.472.039 1.06.071l.048.055v.308l-.048.055a65.634 65.634 0 0 0-2.112-.055c-.311 0-1.068.018-2.276.055l-.048-.055v-.308l.055-.055c.684-.05 1.074-.087 1.172-.109a.427.427 0 0 0 .227-.12c.052-.057.094-.164.126-.324s.058-.631.079-1.415l.03-1.203v-2.693c0-1.321-.003-2.04-.011-2.153-.006-.113-.047-.171-.119-.171-.018 0-.043.005-.075.014s-.132.05-.301.123l-.677.301a9.982 9.982 0 0 0-.802.389zm8.251 2.878c-.506-.269-.89-.577-1.152-.927-.262-.348-.393-.771-.393-1.268 0-.697.258-1.295.772-1.795.515-.498 1.217-.748 2.105-.748.451 0 .869.078 1.255.236.385.156.682.392.892.703.21.313.314.66.314 1.043 0 .4-.123.785-.369 1.152-.246.366-.681.738-1.306 1.117v.062c.533.255.929.472 1.186.649.258.178.469.418.633.721.164.304.246.653.246 1.05 0 .542-.156 1.063-.469 1.562-.312.5-.723.879-1.233 1.139s-1.039.39-1.586.39c-.798 0-1.456-.224-1.976-.67s-.779-1.042-.779-1.784c0-.602.179-1.12.537-1.555a3.693 3.693 0 0 1 1.322-1.016v-.061zm.554.246c-.538.319-.911.662-1.121 1.028-.21.367-.314.783-.314 1.248 0 .652.183 1.163.547 1.535.364.371.834.557 1.408.557.392 0 .747-.092 1.066-.273s.558-.432.714-.748c.158-.317.236-.662.236-1.036 0-.538-.188-.957-.564-1.258-.376-.301-1.034-.651-1.972-1.053zm1.039-.902c.487-.306.817-.612.991-.919.174-.309.26-.64.26-.995 0-.524-.15-.938-.451-1.244s-.704-.458-1.21-.458c-.483 0-.884.136-1.203.406-.319.271-.479.65-.479 1.139 0 .369.104.689.312.961.206.27.8.64 1.78 1.11zm3.534 1.326c0-.812.041-1.542.123-2.19.082-.65.264-1.229.543-1.736.281-.509.632-.889 1.053-1.143a2.754 2.754 0 0 1 1.439-.379c.611 0 1.147.157 1.609.472.463.314.796.798.998 1.449.203.651.305 1.538.305 2.659 0 1.822-.279 3.165-.838 4.026-.558.861-1.332 1.292-2.32 1.292-.496 0-.936-.107-1.316-.321a2.543 2.543 0 0 1-.936-.93 4.195 4.195 0 0 1-.514-1.436 10.17 10.17 0 0 1-.146-1.763zm1.176-.396c0 .866.064 1.654.195 2.365.129.711.346 1.223.648 1.534.304.313.664.469 1.084.469.406 0 .744-.139 1.016-.417.271-.278.469-.755.594-1.429.126-.674.188-1.508.188-2.502 0-1.559-.147-2.711-.444-3.459s-.786-1.121-1.47-1.121c-.597 0-1.048.289-1.354.868s-.457 1.81-.457 3.692zm59.714 4.641l-.082-.068v-.314l2.29-2.427c.943-.998 1.554-1.771 1.832-2.317s.417-1.057.417-1.531c0-.557-.168-1.019-.506-1.388s-.793-.554-1.367-.554c-.369 0-.69.057-.964.171s-.457.241-.55.383c-.094.142-.229.538-.407 1.189l-.062.055h-.28l-.068-.062c.104-.615.178-1.224.219-1.825.429-.419.828-.687 1.2-.804.371-.115.76-.174 1.165-.174.483 0 .946.092 1.388.273s.797.478 1.066.885c.27.408.403.881.403 1.419 0 .401-.079.804-.235 1.206a4.464 4.464 0 0 1-.691 1.17c-.303.375-.717.826-1.24 1.35l-2.133 2.174h2.7c.829 0 1.521-.029 2.071-.089l.048.055a3.672 3.672 0 0 0-.041.608c0 .229.014.408.041.54l-.048.075c-.328-.018-.832-.034-1.511-.048s-1.128-.021-1.347-.021c-.441 0-1.037.006-1.784.018-.746.011-1.254.028-1.524.051zm7.609-.013l-.144-.144c.164-.246.504-.774 1.019-1.586l1.251-1.996 1.176-1.921 1.025-1.764c.219-.383.393-.693.52-.93l-.068-.068h-2.119c-.533 0-1.008.01-1.422.027s-.658.045-.731.078a.331.331 0 0 0-.153.127c-.03.051-.063.223-.1.52l-.123.964-.062.055h-.287l-.062-.055.034-1.873c0-.214-.011-.544-.034-.991l.137-.068c.25.027.76.057 1.527.089.769.032 1.282.048 1.542.048.925 0 1.935-.031 3.028-.096l.055.055v.355l-.984 1.743a156.976 156.976 0 0 0-2.044 3.79c-.766 1.461-1.323 2.656-1.675 3.586l-.068.055a7.204 7.204 0 0 0-.588-.034c-.21-.001-.427.01-.65.034zm6.501-4.232c0-.812.041-1.542.123-2.19.082-.65.264-1.229.543-1.736.281-.509.632-.889 1.053-1.143a2.754 2.754 0 0 1 1.439-.379c.611 0 1.147.157 1.609.472.463.314.796.798.998 1.449.203.651.305 1.538.305 2.659 0 1.822-.279 3.165-.838 4.026-.558.861-1.332 1.292-2.32 1.292-.496 0-.936-.107-1.316-.321a2.543 2.543 0 0 1-.936-.93 4.195 4.195 0 0 1-.514-1.436 10.17 10.17 0 0 1-.146-1.763zm1.176-.396c0 .866.064 1.654.195 2.365.129.711.346 1.223.648 1.534.304.313.664.469 1.084.469.406 0 .744-.139 1.016-.417.271-.278.469-.755.594-1.429.126-.674.188-1.508.188-2.502 0-1.559-.147-2.711-.444-3.459s-.786-1.121-1.47-1.121c-.597 0-1.048.289-1.354.868s-.457 1.81-.457 3.692zm60.111 4.416a14.93 14.93 0 0 0-.458-1.941l.034-.103.253-.096.096.048c.159.419.331.766.513 1.039s.444.483.786.629.711.219 1.107.219c.501 0 .899-.104 1.192-.314.295-.21.521-.495.681-.854s.239-.766.239-1.217c0-.605-.158-1.082-.475-1.429-.317-.347-.756-.52-1.316-.52-.191 0-.362.019-.513.055s-.383.118-.697.246l-.075-.068.15-.745c.369.023.615.034.738.034.533 0 .956-.188 1.268-.567.313-.379.469-.824.469-1.34 0-.451-.163-.83-.488-1.135-.326-.305-.729-.458-1.207-.458-.314 0-.611.063-.893.191a2.33 2.33 0 0 0-.693.465c-.078.155-.201.46-.369.916l-.068.062h-.308l-.055-.062.41-1.586c.569-.643 1.343-.964 2.317-.964.742 0 1.344.197 1.801.592.459.394.688.889.688 1.486 0 .455-.135.874-.403 1.254-.269.381-.643.74-1.121 1.077.788.096 1.343.331 1.665.708.32.375.481.83.481 1.363 0 .875-.396 1.662-1.189 2.361-.793.7-1.709 1.05-2.748 1.05-.31 0-.599-.026-.868-.079a4.5 4.5 0 0 1-.944-.317zm12.195-9.297v.082c-.496.104-1.063.353-1.699.745-.635.393-1.17.918-1.603 1.579s-.684 1.458-.752 2.393c.155-.109.333-.241.533-.396.26-.196.45-.331.571-.403.12-.072.282-.137.484-.191.203-.055.438-.082.701-.082.469 0 .891.104 1.265.311.374.208.653.514.841.916.188.404.28.875.28 1.412 0 .762-.185 1.398-.554 1.91-.369.514-.762.88-1.176 1.102-.414.221-.891.331-1.429.331-.916 0-1.627-.343-2.133-1.028-.506-.687-.759-1.578-.759-2.677 0-.729.105-1.43.318-2.103.211-.672.533-1.28.967-1.824a6.558 6.558 0 0 1 1.658-1.453c.672-.424 1.334-.711 1.985-.861l.502.237zm-4.183 6.521c0 .451.064.897.195 1.34.129.442.338.784.625 1.025s.625.362 1.012.362c.332 0 .641-.094.923-.28s.498-.479.646-.878c.148-.399.223-.82.223-1.262s-.072-.838-.219-1.186a1.807 1.807 0 0 0-.636-.814 1.661 1.661 0 0 0-.971-.29c-.273 0-.547.065-.82.198s-.484.283-.632.451a1.196 1.196 0 0 0-.284.537 3.91 3.91 0 0 0-.062.797zm5.701-1.244c0-.812.041-1.542.123-2.19.082-.65.264-1.229.543-1.736.281-.509.632-.889 1.053-1.143a2.754 2.754 0 0 1 1.439-.379c.611 0 1.147.157 1.609.472.463.314.796.798.998 1.449.203.651.305 1.538.305 2.659 0 1.822-.279 3.165-.838 4.026-.558.861-1.332 1.292-2.32 1.292-.496 0-.936-.107-1.316-.321a2.543 2.543 0 0 1-.936-.93 4.195 4.195 0 0 1-.514-1.436 10.17 10.17 0 0 1-.146-1.763zm1.176-.396c0 .866.064 1.654.195 2.365.129.711.346 1.223.648 1.534.304.313.664.469 1.084.469.406 0 .744-.139 1.016-.417.271-.278.469-.755.594-1.429.126-.674.188-1.508.188-2.502 0-1.559-.147-2.711-.444-3.459s-.786-1.121-1.47-1.121c-.597 0-1.048.289-1.354.868s-.457 1.81-.457 3.692zM301 272.308v-.813h7v.813h-7zm9.249 3.042l-.055-.055v-.294l.055-.055c.674-.019 1.074-.038 1.2-.062s.218-.07.277-.144.104-.251.133-.533.044-.583.044-.902v-.505h-1.497c-.871 0-1.606.014-2.208.041l-.116-.369c.793-1.485 2.117-3.637 3.972-6.453l.964-.39.171.082c-.05.775-.075 1.734-.075 2.878l-.021 1.928v1.415a25.561 25.561 0 0 0 1.456-.041l.062.068a8.436 8.436 0 0 0-.014.376c.004.15.011.298.021.444l-.068.062a18.773 18.773 0 0 0-1.107-.041h-.349v.458c0 .51.014.873.041 1.087s.071.353.13.413c.059.063.179.107.359.137.18.03.491.047.933.052l.062.055v.294l-.055.055a44.93 44.93 0 0 0-2.017-.055 40.18 40.18 0 0 0-2.298.054zm-1.265-3.418h2.919l.062-4.86c-.438.624-.989 1.481-1.654 2.57s-1.108 1.852-1.327 2.29zM301 242.308v-.813h7v.813h-7zm7.711 2.83a15.097 15.097 0 0 0-.458-1.941l.034-.103.253-.096.096.048c.16.419.331.766.513 1.039s.444.483.786.629.711.219 1.107.219c.501 0 .899-.104 1.193-.314s.521-.495.68-.854.239-.766.239-1.217c0-.605-.158-1.082-.475-1.429s-.755-.52-1.316-.52c-.191 0-.362.019-.513.055s-.383.118-.697.246l-.075-.068.15-.745c.369.023.615.034.738.034.533 0 .956-.188 1.268-.567s.468-.824.468-1.34c0-.451-.163-.83-.489-1.135s-.728-.458-1.207-.458c-.314 0-.612.063-.892.191s-.512.282-.694.465c-.078.155-.201.46-.369.916l-.068.062h-.308l-.055-.062.41-1.586c.57-.643 1.342-.964 2.317-.964.743 0 1.343.197 1.801.592.458.394.687.889.687 1.486 0 .455-.134.874-.403 1.254-.269.381-.643.74-1.121 1.077.789.096 1.343.331 1.665.708.321.375.482.83.482 1.363 0 .875-.396 1.662-1.189 2.361-.793.7-1.709 1.05-2.748 1.05-.31 0-.599-.026-.868-.079a4.544 4.544 0 0 1-.942-.317zM301 212.308v-.813h7v.813h-7zm7.314 3.055l-.082-.068v-.314l2.29-2.427c.943-.998 1.554-1.771 1.832-2.317s.417-1.057.417-1.531c0-.557-.168-1.019-.506-1.388s-.793-.554-1.367-.554c-.369 0-.69.057-.964.171s-.457.241-.55.383-.229.538-.407 1.189l-.062.055h-.28l-.068-.062c.105-.615.178-1.224.219-1.825.428-.419.828-.687 1.2-.804.372-.115.76-.174 1.166-.174.483 0 .946.092 1.388.273s.797.478 1.066.885c.269.408.403.881.403 1.419 0 .401-.079.804-.236 1.206a4.432 4.432 0 0 1-.69 1.17c-.303.375-.717.826-1.241 1.35l-2.133 2.174h2.7c.83 0 1.52-.029 2.071-.089l.048.055a3.672 3.672 0 0 0-.041.608c0 .229.014.408.041.54l-.048.075c-.328-.018-.832-.034-1.511-.048s-1.128-.021-1.347-.021c-.442 0-1.037.006-1.784.018a26.18 26.18 0 0 0-1.524.051zM301 182.308v-.813h7v.813h-7zm8.046-4.738l-.123-.041-.068-.561.068-.068c.456-.133 1.032-.344 1.729-.636s1.196-.515 1.497-.67l.178.068c-.073 1.996-.109 3.194-.109 3.596v2.536c0 .625.007 1.211.021 1.76.014.55.034.873.062.971.027.099.074.175.14.229s.158.09.277.106c.119.016.472.039 1.06.071l.048.055v.308l-.048.055a65.634 65.634 0 0 0-2.112-.055c-.31 0-1.069.018-2.276.055l-.048-.055v-.308l.055-.055c.684-.05 1.074-.087 1.172-.109s.173-.063.226-.12c.052-.057.095-.164.126-.324s.058-.631.079-1.415l.031-1.203v-2.693c0-1.321-.003-2.04-.01-2.153s-.047-.171-.12-.171c-.018 0-.043.005-.075.014s-.132.05-.301.123l-.677.301a9.82 9.82 0 0 0-.802.389zm0-60l-.123-.041-.068-.561.068-.068c.456-.132 1.032-.344 1.729-.636s1.196-.515 1.497-.67l.178.068c-.073 1.996-.109 3.195-.109 3.596v2.536c0 .625.007 1.211.021 1.76s.034.873.062.971.074.174.14.229.158.09.277.106.472.04 1.06.072l.048.055v.308l-.048.055a65.634 65.634 0 0 0-2.112-.055c-.31 0-1.069.018-2.276.055l-.048-.055v-.308l.055-.055c.684-.05 1.074-.086 1.172-.109s.173-.063.226-.12.095-.165.126-.325.058-.631.079-1.415l.031-1.203v-2.693c0-1.322-.003-2.04-.01-2.153s-.047-.171-.12-.171c-.018 0-.043.004-.075.014s-.132.05-.301.123l-.677.301a9.82 9.82 0 0 0-.802.389zm-.732-22.207l-.082-.068v-.315l2.29-2.427c.943-.998 1.554-1.771 1.832-2.317s.417-1.057.417-1.531c0-.556-.168-1.019-.506-1.388s-.793-.554-1.367-.554c-.369 0-.69.057-.964.171s-.457.242-.55.383-.229.538-.407 1.189l-.062.055h-.28l-.068-.062c.105-.615.178-1.224.219-1.825.428-.419.828-.687 1.2-.803s.76-.174 1.166-.174c.483 0 .946.091 1.388.273s.797.478 1.066.885.403.881.403 1.418c0 .401-.079.803-.236 1.207s-.387.793-.69 1.169-.717.826-1.241 1.35l-2.133 2.174h2.7c.83 0 1.52-.03 2.071-.089l.048.055a3.672 3.672 0 0 0-.041.608c0 .228.014.408.041.54l-.048.075c-.328-.018-.832-.034-1.511-.048s-1.128-.021-1.347-.021c-.442 0-1.037.006-1.784.017s-1.255.03-1.524.053zm.397-30.225a15.097 15.097 0 0 0-.458-1.941l.034-.103.253-.096.096.048c.16.419.331.766.513 1.039s.444.483.786.629.711.219 1.107.219c.501 0 .899-.105 1.193-.314s.521-.495.68-.854.239-.766.239-1.217c0-.606-.158-1.083-.475-1.429s-.755-.52-1.316-.52c-.191 0-.362.018-.513.055s-.383.119-.697.246l-.075-.068.15-.745c.369.023.615.034.738.034.533 0 .956-.189 1.268-.567s.468-.825.468-1.34c0-.451-.163-.83-.489-1.135s-.728-.458-1.207-.458c-.314 0-.612.064-.892.191s-.512.283-.694.465c-.078.155-.201.46-.369.916l-.068.062h-.308l-.055-.062.41-1.586c.57-.643 1.342-.964 2.317-.964.743 0 1.343.197 1.801.591s.687.89.687 1.487c0 .456-.134.874-.403 1.254s-.643.739-1.121 1.077c.789.096 1.343.332 1.665.708s.482.831.482 1.364c0 .875-.396 1.662-1.189 2.362s-1.709 1.049-2.748 1.049c-.31 0-.599-.026-.868-.079s-.582-.159-.942-.318zm1.538-29.788l-.055-.055v-.294l.055-.055c.674-.018 1.074-.039 1.2-.062s.218-.071.277-.144.104-.25.133-.533.044-.583.044-.902V32.8h-1.497c-.871 0-1.606.014-2.208.041l-.116-.369c.793-1.486 2.117-3.637 3.972-6.453l.964-.39.171.082c-.05.775-.075 1.734-.075 2.878l-.021 1.928v1.415a25.561 25.561 0 0 0 1.456-.041l.062.068a8.334 8.334 0 0 0-.014.376c.004.15.011.298.021.444l-.068.062a18.773 18.773 0 0 0-1.107-.041h-.349v.458c0 .51.014.873.041 1.087s.071.352.13.414.179.107.359.137.491.047.933.051l.062.055v.294l-.055.055a44.93 44.93 0 0 0-2.017-.055 40.18 40.18 0 0 0-2.298.054zm-1.265-3.418h2.919l.062-4.86c-.438.625-.989 1.481-1.654 2.57s-1.108 1.852-1.327 2.29z"/><path fill="none" stroke="#D32F2F" stroke-width="3" stroke-miterlimit="10" d="M-872.819 150.004c12.478 31.201 24.948 62.394 37.423 84.461 12.475 22.061 24.948 34.979 37.424 34.979 12.475 0 24.948-12.919 37.421-34.979 12.475-22.067 24.947-53.261 37.423-84.461 12.471-31.208 24.948-62.394 37.422-84.468 12.472-22.053 24.947-34.98 37.423-34.98 12.473 0 24.945 12.927 37.424 34.98 12.47 22.074 24.945 53.261 37.418 84.468 12.476 31.201 24.948 62.394 37.424 84.461 12.473 22.061 24.947 34.979 37.423 34.979 12.471 0 24.948-12.919 37.419-34.979 12.475-22.067 24.95-53.261 37.423-84.461 12.474-31.208 24.948-62.394 37.422-84.468 12.475-22.053 24.947-34.98 37.423-34.98s24.948 12.927 37.421 34.98c12.475 22.074 24.95 53.261 37.421 84.468 12.478 31.201 24.95 62.394 37.424 84.461 12.475 22.061 24.95 34.979 37.423 34.979s24.948-12.919 37.421-34.979c12.476-22.067 24.948-53.261 37.424-84.461 12.473-31.208 24.948-62.394 37.419-84.468 12.475-22.053 24.949-34.98 37.425-34.98s24.945 12.927 37.422 34.98c12.475 22.074 24.949 53.261 37.42 84.468 12.477 31.201 24.946 62.394 37.426 84.461 12.472 22.061 24.947 34.979 37.421 34.979 12.471 0 24.947-12.919 37.421-34.979 12.476-22.067 24.947-53.261 37.423-84.461 12.474-31.208 24.949-62.394 37.421-84.468 12.474-22.053 24.949-34.98 37.425-34.98 12.469 0 24.945 12.927 37.421 34.98 12.472 22.074 24.945 53.261 37.421 84.468 12.476 31.201 24.944 62.394 37.426 84.461 12.471 22.061 24.946 34.979 37.415 34.979 12.477 0 24.952-12.919 37.421-34.979 12.48-22.067 24.952-53.261 37.428-84.461 12.469-31.208 24.95-62.394 37.421-84.468 12.474-22.053 24.949-34.98 37.421-34.98 12.474 0 24.949 12.927 37.426 34.98 12.471 22.074 24.944 53.261 37.42 84.468 12.477 31.201 24.945 62.394 37.421 84.461 12.476 22.061 24.952 34.979 37.426 34.979 12.471 0 24.947-12.919 37.416-34.979 12.48-22.067 24.951-53.261 37.428-84.461 12.469-31.208 24.944-62.394 37.416-84.468 12.474-22.053 24.949-34.98 37.425-34.98 12.474 0 24.95 12.927 37.421 34.98 12.472 22.074 24.945 53.261 37.426 84.468 12.476 31.201 24.949 62.394 37.416 84.461 12.476 22.061 24.951 34.979 37.425 34.979 12.481 0 24.957-12.919 37.421-34.979 12.476-22.067 24.952-53.261 37.428-84.461 12.469-31.208 24.945-62.394 37.421-84.468 12.474-22.053 24.944-34.98 37.421-34.98 12.474 0 24.944 12.927 37.425 34.98 12.472 22.074 24.945 53.261 37.416 84.468 12.477 31.201 24.945 62.394 37.421 84.461 12.476 22.061 24.952 34.979 37.426 34.979 12.471 0 24.947-12.919 37.416-34.979 12.476-22.067 24.956-53.261 37.433-84.461 12.464-31.208 24.939-62.394 37.416-84.468 12.474-22.053 24.949-34.98 37.43-34.98 12.467 0 24.94 12.927 37.416 34.98 12.476 22.074 24.949 53.261 37.421 84.468"/></svg>